<svg width="67" height="87" viewBox="0 0 67 87" fill="none" xmlns="http://www.w3.org/2000/svg">
<path d="M55.7055 43.5712L55.4177 43.2659L55.0314 43.1021C54.7655 42.9892 54.5061 42.9398 54.3714 42.9163C54.2026 42.8868 54.0205 42.8646 53.8384 42.8467C53.4725 42.8109 53.0116 42.7838 52.4715 42.763C51.7227 42.7341 50.774 42.7155 49.6297 42.7068C49.186 40.3523 48.7174 37.91 48.2239 35.3799C47.6888 32.1919 47.1152 29.0833 46.5032 26.0541C45.8905 23.0211 45.2386 20.1451 44.5472 17.4266C43.9362 14.6752 43.3212 12.2528 42.7007 10.1651C42.1661 8.11719 41.6122 6.41439 41.0274 5.10012C40.7845 4.45008 40.5072 3.83477 40.1752 3.34386C39.9279 2.97829 39.2039 2 37.9189 2C36.7679 2 35.1752 2.26017 33.252 2.69536C31.2472 3.149 29.1431 3.79598 26.9419 4.62938C24.7645 5.42852 22.6709 6.45358 20.6625 7.7018C18.5584 8.95466 16.9161 10.4843 15.9352 12.3545C15.3745 13.4136 14.7566 15.1769 14.0738 17.4839L14.0668 17.5075L14.0604 17.5313C13.4417 19.828 12.7877 22.5224 12.0981 25.6105C11.4086 28.6984 10.7198 31.9998 10.0316 35.5142C9.45294 38.4696 8.90129 41.3294 8.37669 44.0938C7.2247 44.1702 6.23533 44.2472 5.41114 44.3249L5.41114 44.3248L5.39786 44.3262C4.84928 44.3816 4.36994 44.4432 4.00365 44.5172C3.83614 44.551 3.59144 44.6067 3.35065 44.704C3.24031 44.7486 3.00713 44.8498 2.7679 45.0431C2.5586 45.2123 2 45.7379 2 46.6391C2 47.2796 2.2603 47.7878 2.41965 48.0582C2.60421 48.3714 2.83719 48.6665 3.07248 48.9327L3.11661 48.9826L3.16397 49.0295C3.60335 49.4644 4.11284 49.9131 4.6844 50.375L4.73435 50.4154L4.78678 50.4525L6.38565 51.583C6.58395 51.7233 6.7874 51.8609 6.99298 51.9893C6.86077 52.7504 6.72858 53.5204 6.5964 54.2993L6.59067 54.333L6.5861 54.3669C6.44315 55.4283 6.22639 56.6075 5.93229 57.9073L5.92028 57.9604L5.91117 58.014C5.67812 59.3873 5.48323 60.7096 5.3269 61.9808L5.31195 62.1024V62.2249C5.31195 63.1055 5.55284 64.0359 5.89742 64.9496C6.24625 65.8746 6.68126 66.7658 7.20045 67.6224L7.23705 67.6828L7.27783 67.7405C7.88817 68.6036 8.56014 69.369 9.29936 70.0224C10.15 70.7743 11.2108 71.3315 12.4512 71.3315C13.1655 71.3315 13.6676 70.9882 13.8946 70.8063C14.1496 70.602 14.3436 70.3698 14.4805 70.1869C14.7587 69.8152 15.0213 69.347 15.2685 68.8518C15.7599 67.8672 16.3129 66.5789 16.9261 65.0093C17.6348 63.3903 18.3336 61.5192 19.0248 59.4038C19.6225 57.7547 20.2193 56.0259 20.8153 54.2176C21.8049 54.3329 22.8109 54.4594 23.8331 54.5971L23.8706 54.6021L23.9082 54.6058C25.6043 54.7693 27.3005 54.9056 28.9968 55.0147C30.6699 55.1222 32.3048 55.2298 33.9016 55.3373L33.9077 55.3377C35.1118 55.4151 36.2762 55.4925 37.4009 55.5698C38.7612 59.2377 40.013 62.2209 41.1571 64.4963C41.7713 65.7177 42.2881 66.7113 42.7047 67.4688C43.0865 68.163 43.4437 68.7705 43.7437 69.1609C44.2887 69.8969 45.1219 70.2302 45.9559 70.1766C46.5938 70.1356 47.1456 69.8787 47.5504 69.6394C48.4194 69.2155 49.213 68.6402 49.9342 67.939C50.63 67.2625 51.2441 66.5227 51.774 65.7205C52.068 65.3295 52.3315 64.9282 52.5309 64.5254C52.7283 64.1267 52.9383 63.5777 52.9383 62.9517C52.9383 62.7036 52.8826 62.2785 52.8353 61.9217C52.7765 61.4777 52.6893 60.8617 52.5746 60.0781C52.4209 59.0269 52.2326 57.7442 52.0099 56.2301H52.145L52.6641 55.8631C53.2183 55.4712 53.5248 54.8917 53.673 54.5924C53.8575 54.2196 54.0282 53.7774 54.1894 53.2974C54.5808 52.2962 54.9319 51.2473 55.2437 50.152C55.6337 49.0403 55.9219 47.9765 56.0956 46.9654C56.2113 46.4917 56.3015 46.0262 56.3309 45.6092C56.3464 45.3913 56.3513 45.1108 56.3027 44.8129C56.2593 44.5471 56.1363 44.0281 55.7055 43.5712ZM4.7408 48.4502C4.74075 48.4502 4.74239 48.4497 4.74589 48.4489C4.7426 48.4498 4.74085 48.4502 4.7408 48.4502ZM32.108 38.4494L32.1126 38.4661L32.1175 38.4827C32.5942 40.1006 33.0409 41.6231 33.4576 43.0503C31.9384 43.1064 30.4034 43.1517 28.8525 43.186C27.3722 43.2187 25.8919 43.2613 24.4116 43.3137C24.9445 41.6966 25.4769 40.0163 26.0087 38.273C26.7718 35.8987 27.6101 33.2309 28.5237 30.27L28.5237 30.27L28.5267 30.2604C28.7517 29.5177 28.9768 28.7701 29.2018 28.0177C29.4482 28.9397 29.6948 29.8368 29.9416 30.7092C30.7783 33.6674 31.5004 36.2473 32.108 38.4494Z" fill="white" stroke="#8A88CE" stroke-width="4"/>
<path d="M40.0498 66.3048C40.0537 66.1894 40.0575 66.0742 40.061 65.9628C43.6624 65.8174 46.5326 65.6514 48.6602 65.4634C49.9221 65.3553 50.9168 65.259 51.6331 65.1746C51.9892 65.1326 52.2977 65.0911 52.5448 65.0495C52.6674 65.0289 52.7957 65.0048 52.9178 64.976C53.0042 64.9556 53.2224 64.9033 53.451 64.7955C54.2992 64.3957 54.9876 63.7286 55.5522 62.9967L55.5776 62.9637L55.6016 62.9298C56.1346 62.1761 56.5835 61.3841 56.9446 60.5542L56.9551 60.53L56.965 60.5055C57.3205 59.6258 57.5666 58.7511 57.668 57.8906C57.7643 57.0732 57.7454 55.6165 56.4938 54.7315C56.2544 54.5622 56.0291 54.4821 55.9603 54.4577C55.8574 54.4213 55.764 54.3961 55.6971 54.3795C55.5616 54.3458 55.4181 54.3187 55.2871 54.2966C55.0189 54.2512 54.6708 54.2046 54.2598 54.1561C53.4314 54.0585 52.248 53.9421 50.721 53.8071C48.0838 53.5681 44.5394 53.3092 40.0941 53.0303V43.555C45.9257 43.9296 50.2098 44.2597 52.9633 44.5446L52.9682 44.5451C54.5869 44.7086 55.8997 44.8027 56.8793 44.8174C57.365 44.8248 57.8185 44.8136 58.2092 44.77C58.4046 44.7482 58.6234 44.7141 58.8428 44.6557C59.0384 44.6036 59.3668 44.4986 59.6916 44.269C60.4718 43.7173 61.1062 42.7428 61.6318 41.7931C62.2972 40.7266 62.8412 39.601 63.2627 38.4185C63.7399 37.2312 64.0841 36.0999 64.2674 35.0347C64.3927 34.4878 64.4802 33.9013 64.4443 33.3419C64.4093 32.7986 64.2232 31.8517 63.3461 31.2315C62.979 30.9719 62.5688 30.8568 62.4069 30.8117C62.168 30.7451 61.8954 30.6872 61.6099 30.6348C61.035 30.5295 60.2741 30.4229 59.347 30.3136C57.5458 30.0922 55.3024 29.9014 52.6274 29.739C50.0084 29.5215 47.1667 29.359 44.1035 29.2507C41.0377 29.1423 38.1588 29.0879 35.4674 29.0879C32.8424 29.0879 30.5614 29.1962 28.6383 29.4213C27.6909 29.5059 26.8583 29.6245 26.1839 29.7948C25.8431 29.8809 25.4912 29.9928 25.1641 30.1469C24.8622 30.2893 24.4443 30.5307 24.104 30.9445C23.7987 31.3125 23.6534 31.7158 23.5807 31.9469C23.4938 32.2234 23.4325 32.5195 23.3859 32.8079C23.2923 33.3866 23.2308 34.1109 23.1912 34.9492C23.1116 36.5839 23.1129 38.6069 23.19 41.0043C23.2659 43.368 23.342 46.0286 23.418 48.9863L23.4187 49.012L23.42 49.0376C23.5731 52.0145 23.7644 55.0446 23.9939 58.128C24.1111 59.7034 24.1839 60.1474 24.2682 60.5972C24.2706 60.6102 24.2731 60.6233 24.2756 60.6365C24.3231 60.8879 24.3807 61.1929 24.4855 62.5514C24.613 64.2034 24.8583 65.1536 25.0952 65.9857C25.1104 66.0389 25.1253 66.091 25.14 66.1422C25.3302 66.8069 25.4784 67.3242 25.5668 68.2623L25.5697 68.2932L25.5736 68.324C25.8789 70.7525 26.1468 72.7824 26.3771 74.4113L26.3844 74.463L26.3944 74.5142C26.5516 75.3202 26.7066 76.0065 26.8612 76.5532C26.9914 77.0136 27.1891 77.639 27.5239 78.1124L27.5552 78.1568L27.589 78.1994C28.6646 79.5576 29.7035 80.8365 30.7057 82.0357L30.7441 82.0817L30.7852 82.1252C32.0879 83.507 33.683 84.4491 35.5523 84.4491C36.8377 84.4491 37.5336 83.5134 37.807 83.0301C38.0982 82.5153 38.2799 81.9035 38.4082 81.3153C38.7378 80.1348 39.014 78.7149 39.2457 77.0763L39.2469 77.0674C39.4842 75.3337 39.6407 73.4493 39.7194 71.4174C39.8043 70.2736 39.8775 69.1539 39.939 68.0584C39.9583 67.9731 39.9675 67.9082 39.97 67.89L39.9703 67.8879C39.9802 67.8181 39.9854 67.7564 39.9875 67.7312C39.9928 67.6665 39.9973 67.5917 40.001 67.5231C40.0161 67.2424 40.0345 66.7578 40.0498 66.3048Z" fill="white" stroke="#8A5DE4" stroke-width="4"/>
<path d="M32.0709 25.2446L31.6456 22.8118L46.7474 26.6153L54.219 49.34L44.2106 48.6251L32.0709 25.2446Z" fill="white" stroke="#8A88CE" stroke-width="4"/>
<path d="M35.577 20.943L42.8231 19.0014L45.9289 30.5925L38.6828 32.5341L35.7476 28.4384C34.6111 26.8527 34 24.9509 34 23L25.4998 23.0002L27.5 19.5L31.4932 19.0012L35.577 20.943Z" fill="white"/>
</svg>
